<svg xmlns="http://www.w3.org/2000/svg" width="80" height="91.671" viewBox="0 0 80 91.671">
  <g id="Grupo_22" data-name="Grupo 22" opacity="0.3">
    <g id="Grupo_21" data-name="Grupo 21" transform="translate(0)">
      <path id="Caminho_79" data-name="Caminho 79" d="M32.5,10.945A30.009,30.009,0,0,0,10,40V60a3.336,3.336,0,0,1-3.331,3.335,6.666,6.666,0,1,0,.016,13.333H73.318a6.666,6.666,0,1,0,.012-13.333A3.326,3.326,0,0,1,70,60V40A30.011,30.011,0,0,0,47.5,10.945V7.5A7.5,7.5,0,1,0,32.5,7.5ZM28.335,80H51.669a11.667,11.667,0,1,1-23.334,0Z" transform="translate(0)" fill="#3b3b3b" fill-rule="evenodd"/>
    </g>
  </g>
</svg>
