<svg xmlns="http://www.w3.org/2000/svg" xmlns:xlink="http://www.w3.org/1999/xlink" width="224.092" height="194.932" viewBox="0 0 224.092 194.932">
  <defs>
    <linearGradient id="linear-gradient" x2="1" y2="1" gradientUnits="objectBoundingBox">
      <stop offset="0" stop-color="#f58524"/>
      <stop offset="1" stop-color="#f92b7f"/>
    </linearGradient>
  </defs>
  <g id="Grupo_43" data-name="Grupo 43" transform="translate(-466 -1009)">
    <path id="Subtração_2" data-name="Subtração 2" d="M2349.118-2652.067a75.631,75.631,0,0,1-7.686-.4c-1.022-.027-2.108-.067-3.419-.126a149.035,149.035,0,0,1-21.915-2.5,91.3,91.3,0,0,1-22.342-7.207c-9.95-4.842-17.74-11.535-23.154-19.893-6.16-9.509-9.283-21.24-9.283-34.87a101.79,101.79,0,0,1,3.073-25.618,33.833,33.833,0,0,1-12.775-3.812,29.685,29.685,0,0,1-11.652-11.792c-5.492-9.768-3.348-22.975,6.373-39.255a135.23,135.23,0,0,1,23.915-29.264,51.758,51.758,0,0,1,15.324-9.66,33.591,33.591,0,0,1,12.128-2.379,27.194,27.194,0,0,1,5.955.642,23.3,23.3,0,0,1,6.714,2.631,55.986,55.986,0,0,1,8.309-5.026,58.441,58.441,0,0,1,9.19-3.571,74.872,74.872,0,0,1,21.173-2.839,74.853,74.853,0,0,1,21.173,2.84,58.411,58.411,0,0,1,9.189,3.573,55.875,55.875,0,0,1,8.307,5.028,23.313,23.313,0,0,1,6.714-2.631,27.226,27.226,0,0,1,5.959-.642,33.585,33.585,0,0,1,12.127,2.379,51.737,51.737,0,0,1,15.321,9.661,135.271,135.271,0,0,1,23.915,29.259c9.72,16.28,11.865,29.487,6.373,39.255a29.684,29.684,0,0,1-11.652,11.792,33.829,33.829,0,0,1-12.775,3.812,101.783,101.783,0,0,1,3.073,25.618c0,13.625-3.123,25.357-9.283,34.87-5.412,8.362-13.2,15.054-23.153,19.893-12.453,6.055-28.107,9.271-47.856,9.834A67.815,67.815,0,0,1,2349.118-2652.067Zm0-27.206c10.637,0,20.861,3.9,25.441,9.71-.055-4.19-2.725-8.125-7.521-11.08a34.6,34.6,0,0,0-17.92-4.583,34.65,34.65,0,0,0-17.883,4.56c-4.789,2.938-7.473,6.856-7.557,11.032C2329.222-2675.31,2339.684-2679.273,2349.115-2679.273Zm-.067-59.489c-9.267,0-24.777,0-24.777,14.024,0,3.8,1.811,8.275,5.1,12.614a35.714,35.714,0,0,0,11.5,9.9l.009,0a1.523,1.523,0,0,1,.324.223,17.693,17.693,0,0,0,7.824,1.825c.171,0,.344,0,.513-.009a21.2,21.2,0,0,0,7.672-2.035,35.653,35.653,0,0,0,11.508-9.894c3.291-4.342,5.1-8.825,5.1-12.625C2373.821-2738.762,2358.313-2738.762,2349.048-2738.762Zm22.659-35.582a9.077,9.077,0,0,0-9.034,9.1,9.077,9.077,0,0,0,9.034,9.1,9.075,9.075,0,0,0,9.03-9.1A9.075,9.075,0,0,0,2371.707-2774.344Zm-45.388.065a9.007,9.007,0,0,0-8.963,9.03,9.009,9.009,0,0,0,8.963,9.034,9.012,9.012,0,0,0,8.969-9.034A9.009,9.009,0,0,0,2326.319-2774.28Z" transform="translate(-1771 3856)" fill="url(#linear-gradient)"/>
  </g>
</svg>
