<svg xmlns="http://www.w3.org/2000/svg" xmlns:xlink="http://www.w3.org/1999/xlink" width="82.596" height="82.677" viewBox="0 0 82.596 82.677">
  <defs>
    <clipPath id="clip-path">
      <rect id="Retângulo_15" data-name="Retângulo 15" width="82.596" height="82.677" fill="#3b3b3b" stroke="#707070" stroke-miterlimit="10" stroke-width="1" opacity="0.3"/>
    </clipPath>
  </defs>
  <g id="Grupo_25" data-name="Grupo 25" opacity="0.3">
    <g id="Grupo_24" data-name="Grupo 24">
      <g id="Grupo_23" data-name="Grupo 23" clip-path="url(#clip-path)">
        <path id="Caminho_80" data-name="Caminho 80" d="M82.032,36.572a2.681,2.681,0,0,0-2.644-2.029,9.089,9.089,0,0,1-6.222-15.818,2.287,2.287,0,0,0,.25-3.105A40.589,40.589,0,0,0,66.9,9.036a2.294,2.294,0,0,0-3.129.253A9.487,9.487,0,0,1,53.5,11.6,9.139,9.139,0,0,1,47.943,2.66,2.285,2.285,0,0,0,45.923.254,41.006,41.006,0,0,0,36.662.23a2.294,2.294,0,0,0-2.038,2.354,9.161,9.161,0,0,1-5.637,8.782A9.5,9.5,0,0,1,18.8,9.045a2.294,2.294,0,0,0-3.105-.259,40.916,40.916,0,0,0-6.656,6.581,2.288,2.288,0,0,0,.244,3.126,9.118,9.118,0,0,1,2.3,10.268,9.512,9.512,0,0,1-8.954,5.562A2.24,2.24,0,0,0,.251,36.345,41.155,41.155,0,0,0,.233,45.7a2.722,2.722,0,0,0,2.7,2.026A9.026,9.026,0,0,1,11.4,53.366,9.157,9.157,0,0,1,9.1,63.544a2.286,2.286,0,0,0-.25,3.1,40.891,40.891,0,0,0,6.509,6.587,2.288,2.288,0,0,0,3.132-.247,9.467,9.467,0,0,1,10.259-2.306,9.123,9.123,0,0,1,5.568,8.932,2.286,2.286,0,0,0,2.02,2.406,41.028,41.028,0,0,0,9.261.024,2.293,2.293,0,0,0,2.038-2.357,9.148,9.148,0,0,1,5.631-8.776,9.5,9.5,0,0,1,10.193,2.318,2.3,2.3,0,0,0,3.105.259A40.911,40.911,0,0,0,73.22,66.9a2.289,2.289,0,0,0-.244-3.129A9.12,9.12,0,0,1,70.67,53.508a9.216,9.216,0,0,1,8.42-5.58l.509.012a2.289,2.289,0,0,0,2.409-2.02,40.733,40.733,0,0,0,.024-9.348ZM41.2,54.955A13.729,13.729,0,1,1,54.931,41.226,13.742,13.742,0,0,1,41.2,54.955Zm0,0" transform="translate(0.018 0.014)" fill="#3b3b3b" fill-rule="evenodd"/>
      </g>
    </g>
  </g>
</svg>
