<svg xmlns="http://www.w3.org/2000/svg" width="78" height="78" viewBox="0 0 78 78">
  <g id="Grupo_20" data-name="Grupo 20" opacity="0.3">
    <g id="Grupo_19" data-name="Grupo 19">
      <path id="Caminho_78" data-name="Caminho 78" d="M457.645,338A8.643,8.643,0,0,0,449,346.645v60.711A8.643,8.643,0,0,0,457.645,416h60.711A8.643,8.643,0,0,0,527,407.355V346.645A8.643,8.643,0,0,0,518.355,338Zm13,17.333a4.335,4.335,0,0,0,0,8.669h34.708a4.335,4.335,0,0,0,0-8.669Zm0,17.333a4.335,4.335,0,0,0,0,8.669h34.708a4.335,4.335,0,0,0,0-8.669ZM470.679,390a4.335,4.335,0,1,0,0,8.669h21.64a4.335,4.335,0,1,0,0-8.669Z" transform="translate(-449 -338)" fill="#3b3b3b" fill-rule="evenodd"/>
    </g>
  </g>
</svg>
