<svg xmlns="http://www.w3.org/2000/svg" width="346" height="76.212" viewBox="0 0 346 76.212">
  <g id="Grupo_6" data-name="Grupo 6" transform="translate(1 1)">
    <g id="Grupo_5" data-name="Grupo 5">
      <text id="D_GLife" data-name="D  GLife" transform="translate(0 73)" fill="#f75356" stroke="rgba(0,0,0,0)" stroke-width="1" font-size="73" font-family="BigJohn, Big John"><tspan x="0" y="0" xml:space="preserve">D  GLife</tspan></text>
      <g id="Grupo_4" data-name="Grupo 4" transform="translate(63.67 20.004)">
        <path id="Caminho_2" data-name="Caminho 2" d="M151.936,275.212c-1.6-7.357-8.62-7.037-10.536-16.955s-10.057-9.279-10.057-9.279-8.155-.639-10.077,9.279-8.966,9.6-10.563,16.955,6.4,8.96,9.917,8,10.716-1.118,10.716-1.118,7.177.16,10.7,1.118S153.539,282.568,151.936,275.212Zm-16.851-1.735a18.225,18.225,0,0,0-7.524,0c-1.236.339-4.046-.224-3.485-2.809s3.034-2.473,3.712-5.957,3.541-3.26,3.541-3.26,2.858-.224,3.534,3.26,3.141,3.372,3.7,5.957S136.321,273.813,135.085,273.477Z" transform="translate(-101.309 -228.27)" fill="#f75356"/>
        <path id="Caminho_3" data-name="Caminho 3" d="M389.44,20.254c4.33,1.25,9.112-2.168,10.689-7.636s-.652-10.9-4.982-12.152S386.035,2.634,384.458,8.1s.652,10.9,4.982,12.152Z" transform="translate(-352.029 -0.191)" fill="#f75356"/>
        <path id="Caminho_4" data-name="Caminho 4" d="M529.214,211.988c-4.17-1.7-9.292,1.184-11.441,6.452s-.512,10.915,3.658,12.611,9.292-1.184,11.44-6.452.512-10.908-3.658-12.611Z" transform="translate(-473.857 -193.914)" fill="#f75356"/>
        <path id="Caminho_5" data-name="Caminho 5" d="M148.515,20.328c4.33-1.25,6.558-6.691,4.982-12.152S147.132-.7,142.808.546,136.25,7.238,137.826,12.7s6.359,8.879,10.689,7.629Z" transform="translate(-125.904 -0.265)" fill="#f75356"/>
        <path id="Caminho_6" data-name="Caminho 6" d="M13.214,231.058c4.17-1.7,5.807-7.35,3.658-12.611s-7.27-8.155-11.441-6.452-5.807,7.35-3.658,12.611,7.27,8.156,11.441,6.452Z" transform="translate(-0.759 -193.921)" fill="#f75356"/>
        <path id="Caminho_7" data-name="Caminho 7" d="M149.8,446.66" transform="translate(-137.345 -409.523)" fill="#f75356"/>
        <rect id="Retângulo_2" data-name="Retângulo 2" width="59.943" height="55.207" rx="10" fill="none"/>
      </g>
    </g>
  </g>
</svg>
